HIERARCHY
ROOT Hips
{
	OFFSET 0.000000 0.000000 0.000000
	CHANNELS 6 Xposition Yposition Zposition Xrotation Yrotation Zrotation
	JOINT LeftUpLeg_virtual
	{
		OFFSET 0.000000 0.000000 0.000000
		CHANNELS 3 Xrotation Yrotation Zrotation
		JOINT LeftUpLeg
		{
			OFFSET 13.026900 -6.336304 -1.092800
			CHANNELS 3 Xrotation Yrotation Zrotation
			JOINT LeftLeg
			{
				OFFSET 0.524474 -46.096886 9.782700
				CHANNELS 3 Xrotation Yrotation Zrotation
				JOINT LeftFoot
				{
					OFFSET -0.524474 -53.427422 -12.948200
					CHANNELS 3 Xrotation Yrotation Zrotation
					JOINT LeftToeBase
					{
						OFFSET 0.192200 -14.009700 16.364100
						CHANNELS 3 Xrotation Yrotation Zrotation
						JOINT LeftToe_End
						{
							OFFSET -1.784700 -0.561700 9.474800
							CHANNELS 3 Xrotation Yrotation Zrotation
							End Site
							{
								OFFSET 0 0 0
							}
						}
					}
				}
			}
		}
	}
	JOINT RightUpLeg_virtual
	{
		OFFSET 0.000000 0.000000 0.000000
		CHANNELS 3 Xrotation Yrotation Zrotation
		JOINT RightUpLeg
		{
			OFFSET -12.883000 -6.336304 -1.092800
			CHANNELS 3 Xrotation Yrotation Zrotation
			JOINT RightLeg
			{
				OFFSET -0.524587 -46.096825 9.782800
				CHANNELS 3 Xrotation Yrotation Zrotation
				JOINT RightFoot
				{
					OFFSET 0.524587 -53.427383 -12.948300
					CHANNELS 3 Xrotation Yrotation Zrotation
					JOINT RightToeBase
					{
						OFFSET -0.192200 -14.009700 16.364100
						CHANNELS 3 Xrotation Yrotation Zrotation
						JOINT RightToe_End
						{
							OFFSET 1.784700 -0.561700 9.474800
							CHANNELS 3 Xrotation Yrotation Zrotation
							End Site
							{
								OFFSET 0 0 0
							}
						}
					}
				}
			}
		}
	}
	JOINT Spine_virtual
	{
		OFFSET 0.000000 0.000000 0.000000
		CHANNELS 3 Xrotation Yrotation Zrotation
		JOINT Spine
		{
			OFFSET 0.072000 7.257294 -0.789700
			CHANNELS 3 Xrotation Yrotation Zrotation
			JOINT Spine1
			{
				OFFSET 0.000000 12.508769 -0.658067
				CHANNELS 3 Xrotation Yrotation Zrotation
				JOINT Spine1_split
				{
					OFFSET 0.000000 12.508769 -0.658067
					CHANNELS 3 Xrotation Yrotation Zrotation
					JOINT Spine2
					{
						OFFSET 0.000000 12.508769 -0.658067
						CHANNELS 3 Xrotation Yrotation Zrotation
						JOINT Neck_virtual
						{
							OFFSET 0.000000 0.000000 0.000000
							CHANNELS 3 Xrotation Yrotation Zrotation
							JOINT Neck
							{
								OFFSET 0.000000 14.033295 7.520400
								CHANNELS 3 Xrotation Yrotation Zrotation
								JOINT Head
								{
									OFFSET 0.000000 8.198502 5.703100
									CHANNELS 3 Xrotation Yrotation Zrotation
									JOINT HeadTop_End
									{
										OFFSET 0.000000 17.760803 13.332701
										CHANNELS 3 Xrotation Yrotation Zrotation
										End Site
										{
											OFFSET 0 0 0
										}
									}
								}
							}
						}
						JOINT LeftShoulder_virtual
						{
							OFFSET 0.000000 0.000000 0.000000
							CHANNELS 3 Xrotation Yrotation Zrotation
							JOINT LeftShoulder
							{
								OFFSET 6.292450 5.785301 -0.669000
								CHANNELS 3 Xrotation Yrotation Zrotation
								JOINT LeftShoulder_split
								{
									OFFSET 6.292450 5.785301 -0.669000
									CHANNELS 3 Xrotation Yrotation Zrotation
									JOINT LeftArm
									{
										OFFSET 13.907140 -6.093903 1.965100
										CHANNELS 3 Xrotation Yrotation Zrotation
										JOINT LeftForeArm
										{
											OFFSET 34.140198 0.000000 0.000000
											CHANNELS 3 Xrotation Yrotation Zrotation
											JOINT LeftHand
											{
												OFFSET 40.960209 0.000000 0.000000
												CHANNELS 3 Xrotation Yrotation Zrotation
												End Site
												{
													OFFSET 0 0 0
												}
											}
										}
									}
								}
							}
						}
						JOINT RightShoulder_virtual
						{
							OFFSET 0.000000 0.000000 0.000000
							CHANNELS 3 Xrotation Yrotation Zrotation
							JOINT RightShoulder
							{
								OFFSET -6.292450 5.785301 -0.669000
								CHANNELS 3 Xrotation Yrotation Zrotation
								JOINT RightShoulder_split
								{
									OFFSET -6.292450 5.785301 -0.669000
									CHANNELS 3 Xrotation Yrotation Zrotation
									JOINT RightArm
									{
										OFFSET -13.907140 -6.093903 1.965100
										CHANNELS 3 Xrotation Yrotation Zrotation
										JOINT RightForeArm
										{
											OFFSET -34.140198 0.000000 0.000000
											CHANNELS 3 Xrotation Yrotation Zrotation
											JOINT RightHand
											{
												OFFSET -40.960209 0.000000 0.000000
												CHANNELS 3 Xrotation Yrotation Zrotation
												End Site
												{
													OFFSET 0 0 0
												}
											}
										}
									}
								}
							}
						}
					}
				}
			}
		}
	}
}
MOTION
Frames: 7
Frame Time: 0.03333333
1.116780 114.492889 -0.345200 0.000000 0.000000 0.000000 3.712636 -30.655931 2.328952 -14.424965 15.159673 12.122846 16.109595 13.344568 -3.231755 -4.128176 -4.407007 -6.137667 1.545476 0.139724 -0.413015 0.000000 0.000000 0.000000 4.331126 -30.245003 2.262603 -6.994368 -1.461641 -10.049361 10.273107 9.285487 1.940911 -6.101259 -1.581609 5.710738 -2.892534 -0.096967 0.554245 0.000000 0.000000 0.000000 3.866632 -29.374052 1.189019 7.316588 0.041806 -1.096786 1.307949 -0.778063 2.364590 0.483644 0.182264 0.664621 0.000000 0.000000 0.000000 1.070939 -0.384597 2.489426 -4.560907 17.682398 -7.129369 -5.936320 15.470109 0.336329 0.000000 0.000000 0.000000 1.305378 -0.607201 2.629070 0.925730 -10.313644 0.264514 1.453180 -0.153124 0.225613 -59.851780 1.383652 -39.452433 9.336256 -59.941897 11.744141 0.000000 0.000000 0.000000 0.830197 -0.453954 2.670995 4.822797 6.030265 7.257929 -0.791101 -0.181931 -1.408501 0.072105 0.531043 63.373651 12.333280 23.517248 -3.934130 0.000000 0.000000 0.000000 
1.102604 114.518364 -0.282665 0.000000 0.000000 0.000000 3.836090 -30.636206 2.367780 -14.474409 15.118769 12.135677 16.066943 13.327313 -3.195890 -4.135256 -4.389762 -6.163319 1.517809 0.141961 -0.415566 0.000000 0.000000 0.000000 4.451878 -30.241749 2.290540 -7.037634 -1.405378 -10.041600 10.351199 9.335402 1.927130 -6.055274 -1.545667 5.749742 -2.907688 -0.108719 0.555291 0.000000 0.000000 0.000000 4.006767 -29.318379 1.227890 7.277976 0.050943 -1.120484 1.284820 -0.793867 2.371440 0.562950 0.136399 0.734736 0.000000 0.000000 0.000000 1.062865 -0.389881 2.510961 -4.499808 17.860912 -7.206061 -5.900884 15.497621 0.370827 0.000000 0.000000 0.000000 1.276884 -0.610264 2.642922 0.910373 -10.207768 0.140310 1.549913 -0.226085 0.299285 -59.793470 1.453762 -39.373329 9.493854 -59.978227 11.819659 0.000000 0.000000 0.000000 0.819408 -0.458006 2.686410 4.769468 6.076079 7.396570 -0.974224 -0.235172 -1.385260 0.154933 0.586063 63.335777 12.324417 23.282776 -3.923433 0.000000 0.000000 0.000000 
1.069951 114.526993 -0.253281 0.000000 0.000000 0.000000 4.029602 -30.561108 2.424090 -14.605537 14.997200 12.144350 16.042233 13.322530 -3.160468 -4.152955 -4.349404 -6.217806 1.494670 0.141631 -0.405342 0.000000 0.000000 0.000000 4.634439 -30.216955 2.341781 -7.130533 -1.356234 -10.025396 10.450357 9.383728 1.919180 -6.076516 -1.516353 5.771326 -2.883604 -0.119788 0.558845 0.000000 0.000000 0.000000 4.248581 -29.266083 1.302586 7.245506 0.071639 -1.149404 1.246634 -0.786696 2.375643 0.600119 0.060295 0.761514 0.000000 0.000000 0.000000 1.053910 -0.368726 2.523179 -4.388957 18.211012 -7.327838 -5.949425 15.695324 0.488504 0.000000 0.000000 0.000000 1.250763 -0.588291 2.647150 0.889835 -10.027066 0.019163 1.635888 -0.220569 0.394914 -59.766204 1.506896 -39.309334 9.584841 -60.130738 11.825954 0.000000 0.000000 0.000000 0.802198 -0.439781 2.691654 4.725355 6.136770 7.569419 -1.080361 -0.299829 -1.439712 0.250567 0.627682 63.294885 12.287443 23.047828 -3.925439 0.000000 0.000000 0.000000 
1.012829 114.511597 -0.238754 0.000000 0.000000 0.000000 4.271990 -30.404389 2.488253 -14.811135 14.814545 12.150811 16.038855 13.331574 -3.134483 -4.183016 -4.292826 -6.290183 1.487890 0.138897 -0.386144 0.000000 0.000000 0.000000 4.858276 -30.151576 2.407288 -7.268336 -1.326952 -10.004919 10.536932 9.427024 1.916736 -6.155914 -1.489975 5.790219 -2.828430 -0.126778 0.560452 0.000000 0.000000 0.000000 4.561059 -29.206893 1.403388 7.213379 0.099927 -1.175243 1.193344 -0.756831 2.375390 0.537113 -0.026623 0.740804 0.000000 0.000000 0.000000 1.043136 -0.326426 2.528033 -4.216363 18.736823 -7.528268 -6.097866 16.075409 0.657208 0.000000 0.000000 0.000000 1.230382 -0.546414 2.642210 0.871566 -9.795718 -0.074916 1.694903 -0.094311 0.519013 -59.794085 1.540590 -39.296725 9.587000 -60.304089 11.746758 0.000000 0.000000 0.000000 0.780167 -0.402971 2.687253 4.689121 6.221314 7.741682 -1.091345 -0.335912 -1.565743 0.342756 0.666300 63.283157 12.229540 22.805974 -3.936110 0.000000 0.000000 0.000000 
0.934132 114.476204 -0.229996 0.000000 0.000000 0.000000 4.543905 -30.154479 2.555327 -15.074084 14.576064 12.161551 16.060536 13.354930 -3.127293 -4.221278 -4.228334 -6.370849 1.493650 0.135465 -0.357725 0.000000 0.000000 0.000000 5.114793 -30.008238 2.482661 -7.426378 -1.328737 -9.981579 10.595252 9.462604 1.918862 -6.282272 -1.463298 5.813920 -2.768942 -0.128724 0.559859 0.000000 0.000000 0.000000 4.918531 -29.103699 1.517906 7.170275 0.131550 -1.193492 1.135199 -0.709404 2.369126 0.446331 -0.146201 0.736157 0.000000 0.000000 0.000000 1.031390 -0.269756 2.525050 -3.964652 19.443932 -7.851458 -6.355655 16.650888 0.844723 0.000000 0.000000 0.000000 1.217957 -0.490287 2.631959 0.862532 -9.539509 -0.130236 1.726757 0.106704 0.642850 -59.905397 1.593016 -39.362182 9.497988 -60.421670 11.580241 0.000000 0.000000 0.000000 0.760652 -0.353776 2.674805 4.659430 6.331650 7.875977 -1.040100 -0.321624 -1.721087 0.435744 0.685842 63.316298 12.157826 22.581848 -3.950651 0.000000 0.000000 0.000000 
0.822923 114.427322 -0.226456 0.000000 0.000000 0.000000 4.828209 -29.802465 2.624501 -15.355975 14.295660 12.177639 16.091499 13.383030 -3.145088 -4.256041 -4.172615 -6.454168 1.500474 0.131169 -0.320199 0.000000 0.000000 0.000000 5.385981 -29.745614 2.560154 -7.583488 -1.377085 -9.951553 10.625367 9.481305 1.922934 -6.438999 -1.445357 5.831342 -2.717645 -0.125889 0.558503 0.000000 0.000000 0.000000 5.293273 -28.912973 1.634624 7.104786 0.165581 -1.203007 1.081054 -0.651964 2.355251 0.378808 -0.309622 0.764014 0.000000 0.000000 0.000000 1.019172 -0.205075 2.514477 -3.613122 20.334462 -8.343371 -6.726871 17.445073 1.013428 0.000000 0.000000 0.000000 1.218715 -0.426760 2.619941 0.866629 -9.287406 -0.133720 1.747485 0.266155 0.713794 -60.148661 1.667252 -39.540027 9.341759 -60.463867 11.349713 0.000000 0.000000 0.000000 0.750246 -0.298418 2.655298 4.635541 6.467272 7.941839 -0.937829 -0.281943 -1.864616 0.517312 0.642318 63.402010 12.082204 22.397643 -3.967043 0.000000 0.000000 0.000000 
0.682470 114.371185 -0.222294 0.000000 0.000000 0.000000 5.109618 -29.343729 2.698443 -15.636163 13.967062 12.202648 16.115389 13.405107 -3.188528 -4.277883 -4.140944 -6.542509 1.506053 0.125890 -0.277921 0.000000 0.000000 0.000000 5.655365 -29.354872 2.632340 -7.737918 -1.493717 -9.907824 10.660675 9.463371 1.923014 -6.612891 -1.454636 5.821391 -2.671644 -0.120285 0.559953 0.000000 0.000000 0.000000 5.671459 -28.610513 1.746595 7.014529 0.202208 -1.208523 1.042857 -0.592125 2.329988 0.363995 -0.450900 0.812859 0.000000 0.000000 0.000000 1.015693 -0.138745 2.497237 -3.142644 21.406911 -9.028561 -7.205976 18.454232 1.143759 0.000000 0.000000 0.000000 1.231623 -0.360895 2.605433 0.883550 -9.063752 -0.098959 1.774853 0.335701 0.760202 -60.542715 1.754555 -39.837403 9.180986 -60.469058 11.110136 0.000000 0.000000 0.000000 0.745973 -0.241559 2.628400 4.619146 6.622700 7.934923 -0.798520 -0.253807 -1.962783 0.596148 0.489637 63.522610 12.011860 22.290748 -3.979973 0.000000 0.000000 0.000000 
